<?xml version="1.0" encoding="UTF-8" standalone="no"?>
<!-- Created with Inkscape (http://www.inkscape.org/) -->

<svg
   version="1.1"
   id="svg1"
   width="1000"
   height="413.89673"
   viewBox="0 0 1000 413.89674"
   sodipodi:docname="headset.svg"
   inkscape:version="1.3.2 (091e20ef0f, 2023-11-25)"
   inkscape:export-filename="headset.png"
   inkscape:export-xdpi="96"
   inkscape:export-ydpi="96"
   xmlns:inkscape="http://www.inkscape.org/namespaces/inkscape"
   xmlns:sodipodi="http://sodipodi.sourceforge.net/DTD/sodipodi-0.dtd"
   xmlns:xlink="http://www.w3.org/1999/xlink"
   xmlns="http://www.w3.org/2000/svg"
   xmlns:svg="http://www.w3.org/2000/svg">
  <defs
     id="defs1">
    <linearGradient
       id="linearGradient781"
       inkscape:collect="always">
      <stop
         style="stop-color:#1c1c1c;stop-opacity:1;"
         offset="0.77042681"
         id="stop781" />
      <stop
         style="stop-color:#232323;stop-opacity:1;"
         offset="1"
         id="stop782" />
    </linearGradient>
    <linearGradient
       id="linearGradient780"
       inkscape:collect="always">
      <stop
         style="stop-color:#2d2d2d;stop-opacity:1;"
         offset="0"
         id="stop779" />
      <stop
         style="stop-color:#1c1c1c;stop-opacity:1;"
         offset="0.47635287"
         id="stop780" />
    </linearGradient>
    <linearGradient
       id="linearGradient7"
       inkscape:collect="always">
      <stop
         style="stop-color:#343434;stop-opacity:1;"
         offset="0"
         id="stop7" />
      <stop
         style="stop-color:#1c1c1c;stop-opacity:1;"
         offset="0.79153961"
         id="stop8" />
    </linearGradient>
    <radialGradient
       inkscape:collect="always"
       xlink:href="#linearGradient7"
       id="radialGradient8"
       cx="200.30603"
       cy="70.727699"
       fx="200.30603"
       fy="70.727699"
       r="59.76252"
       gradientTransform="matrix(1,0,0,0.8818153,0,14.69677)"
       gradientUnits="userSpaceOnUse" />
    <radialGradient
       inkscape:collect="always"
       xlink:href="#linearGradient780"
       id="radialGradient779"
       gradientUnits="userSpaceOnUse"
       gradientTransform="matrix(1,0,0,0.8818153,0,14.69677)"
       cx="198.51512"
       cy="162.93248"
       fx="198.51512"
       fy="162.93248"
       r="59.76252" />
    <radialGradient
       inkscape:collect="always"
       xlink:href="#linearGradient781"
       id="radialGradient782"
       cx="199.25684"
       cy="174.82918"
       fx="199.25684"
       fy="174.82918"
       r="8.4208984"
       gradientUnits="userSpaceOnUse"
       gradientTransform="matrix(1,0,0,1.3446902,0,-61.025287)" />
  </defs>
  <sodipodi:namedview
     id="namedview1"
     pagecolor="#ffffff"
     bordercolor="#000000"
     borderopacity="0.25"
     inkscape:showpageshadow="2"
     inkscape:pageopacity="0.0"
     inkscape:pagecheckerboard="0"
     inkscape:deskcolor="#d1d1d1"
     showgrid="false"
     inkscape:zoom="1"
     inkscape:cx="447.5"
     inkscape:cy="274.5"
     inkscape:window-width="1920"
     inkscape:window-height="1011"
     inkscape:window-x="0"
     inkscape:window-y="0"
     inkscape:window-maximized="1"
     inkscape:current-layer="layer1" />
  <g
     inkscape:groupmode="layer"
     id="layer1"
     inkscape:label="Headset"
     transform="matrix(3.2363158,0,0,3.2363158,-147.23295,-183.0635)"
     style="display:inline">
    <path
       id="path783"
       style="display:inline;fill:#111111;fill-opacity:1;stroke-width:1.92;stroke-linejoin:round;paint-order:stroke markers fill"
       inkscape:label="Backdrop"
       d="m 286.39874,56.587497 c -10.99533,0.09197 -21.87862,0.439774 -21.87862,0.439774 0,0 -90.38679,0.996726 -99.86504,1.103068 -9.47825,0.106342 -39.62364,0.334157 -55.86081,-0.732026 -16.237189,-1.066182 -24.51067,0.285217 -32.02919,1.007513 -7.518518,0.722297 -12.933941,5.935166 -17.427235,8.880978 -4.493297,2.945811 -9.508796,11.741347 -11.326278,18.089411 -1.817483,6.348067 -2.412332,18.226875 -2.412332,18.226875 0,0 -1.037207,13.79038 3.400845,34.73768 4.438054,20.94731 19.658996,27.98398 35.154546,35.99554 15.495552,8.01155 50.664544,8.8631 50.664544,8.8631 0,0 114.26403,2.101 126.76334,0.87116 12.49934,-1.22985 36.00679,-4.52687 48.94736,-8.96424 12.94059,-4.43735 26.42389,-15.42528 30.44556,-19.74457 4.02165,-4.31927 8.28171,-14.78546 9.71526,-20.07426 1.43354,-5.28878 5.35153,-27.60715 3.12871,-41.609781 -2.22283,-14.00262 -12.32207,-28.529373 -22.70285,-32.472314 -10.38078,-3.942943 -15.65529,-2.891016 -23.92717,-4.084256 -2.06798,-0.298308 -5.76871,-0.453268 -10.15672,-0.518005 -3.291,-0.04855 -6.96881,-0.04631 -10.63392,-0.01565 z M 130.731,75.975555 c 2.64431,0.05498 5.54088,0.304294 8.72005,0.792935 25.4333,3.909124 39.46791,14.775738 39.46791,14.775738 18.49832,11.187222 12.05383,33.373652 12.05383,33.373652 0,0 -8.21447,26.75295 -19.62275,37.11593 -11.40828,10.36298 -22.66653,11.26034 -22.66653,11.26034 0,0 -7.12112,1.91636 -20.37042,-0.0928 -13.24931,-2.00908 -19.35342,-7.99863 -19.35342,-7.99863 0,0 -9.780611,-6.10569 -16.131939,-22.93755 -6.351328,-16.83183 -3.31955,-21.47516 -3.41705,-28.35565 -0.09753,-6.88048 6.807357,-22.296464 12.049359,-25.96902 4.58677,-3.213487 10.76081,-12.349869 29.27096,-11.964985 z m 137.5258,0 c 18.51017,-0.384885 24.6842,8.751495 29.27096,11.964985 5.24201,3.67256 12.14689,19.08853 12.04936,25.96902 -0.0975,6.88049 2.93429,11.5238 -3.41705,28.35565 -6.35133,16.83187 -16.13194,22.93755 -16.13194,22.93755 0,0 -6.1041,5.98955 -19.35341,7.99863 -13.24933,2.00908 -20.37043,0.0928 -20.37043,0.0928 0,0 -11.25823,-0.89735 -22.66652,-11.26034 -11.40829,-10.36299 -19.62276,-37.11593 -19.62276,-37.11593 0,0 -6.44395,-22.18642 12.0544,-33.373652 0,0 14.03457,-10.86661 39.4679,-14.775738 3.17917,-0.488641 6.07518,-0.737951 8.71949,-0.792935 z" />
    <path
       style="display:inline;fill:#202020;fill-opacity:1;stroke-width:1.92;stroke-linejoin:round;paint-order:stroke markers fill"
       d="m 50.48719,81.194413 c 0,0 5.910295,-12.172124 20.52123,-16.059508 14.610934,-3.887384 27.249177,-3.226755 27.249177,-3.226755 l 36.157063,0.382655 26.29147,0.415192 c 0,0 26.86794,0.969017 30.70086,1.530622 3.83292,0.561606 16.12034,0.07922 16.12034,0.07922 l 28.18353,-1.558915 27.79027,-0.845944 36.43079,-0.159853 c 0,0 23.44526,0.494411 34.81034,5.676883 11.36508,5.182472 16.58928,18.495489 16.58928,18.495489 -0.086,5.300331 -3.1341,5.090465 -8.67305,0.246852 0,0 -14.40864,-9.81607 -21.33181,-12.019345 -6.92317,-2.203275 -26.93584,-9.27922 -39.80679,-9.0451 -12.87094,0.23412 -35.39669,0.427924 -35.39669,0.427924 0,0 -11.5405,0.723579 -15.90956,0.915261 -4.36907,0.191681 -19.45036,2.262689 -30.82464,1.90196 -11.37428,-0.360728 -23.69564,-1.085723 -23.69564,-1.085723 0,0 -14.70289,-1.15221 -22.53849,-1.537695 -7.83559,-0.385485 -31.32046,-0.70236 -31.32046,-0.70236 0,0 -18.34412,1.122503 -28.74726,4.094626 C 82.684011,72.092021 70.776422,74.943194 55.816075,86.089716 40.855729,97.236239 50.48719,81.194413 50.48719,81.194413 Z"
       id="path4"
       sodipodi:nodetypes="cscccsccccsccsscsscscssc"
       inkscape:label="BrowsHighlight" />
    <g
       inkscape:groupmode="layer"
       id="layer3"
       inkscape:label="NoseBridge"
       style="display:inline">
      <path
         id="path7"
         style="display:inline;fill:url(#radialGradient779);stroke-width:1.92;stroke-linejoin:round;paint-order:stroke markers fill"
         inkscape:label="Bottom"
         d="m 192.00545,117.79712 c -0.20426,4.21362 -1.03266,7.12076 -1.03266,7.12076 0,0 -8.21447,26.75295 -19.62275,37.11593 -2.66296,2.41896 -5.3117,4.30501 -7.81703,5.80144 0.99367,2.57304 1.93655,4.21716 2.7912,4.5123 7.31004,2.52439 21.66236,4.14069 21.66236,4.14069 0,0 16.90056,0.87883 23.44885,0.44313 6.54826,-0.43571 20.18937,-6.27922 20.18937,-6.27922 l 1.4987,-4.31001 c -1.79477,-1.2192 -3.6357,-2.62781 -5.48572,-4.30833 -11.40829,-10.36299 -19.62276,-37.11593 -19.62276,-37.11593 0,0 -0.8284,-2.90714 -1.03266,-7.12076 z" />
      <path
         id="path779"
         style="display:inline;fill:url(#radialGradient8);stroke-width:1.92;stroke-linejoin:round;paint-order:stroke markers fill"
         inkscape:label="Top"
         d="m 233.29169,71.65437 c -3.88118,0.0051 -7.51494,0.107382 -9.64933,0.360983 -5.69172,0.676192 -23.99182,0.622938 -31.63076,0.666088 -7.63895,0.04315 -25.66515,-0.763884 -32.10519,-0.931517 -6.44004,-0.167632 -14.5606,0.75773 -14.5606,0.75773 0,0 0.59168,3.96076 0.81864,5.522043 21.15624,4.576204 32.75451,13.514531 32.75451,13.514531 11.95372,7.229249 13.47986,19.023252 13.07196,26.483672 l 15.00596,-5.5e-4 c -0.40779,-7.46047 1.11909,-19.25405 13.07253,-26.483122 0,0 14.03457,-10.86661 39.4679,-14.775738 1.73182,-0.266182 3.36365,-0.448618 4.93251,-0.580033 l 0.40122,-1.153359 c 0,0 -12.61895,-2.381474 -15.90227,-2.839812 -1.64167,-0.229168 -6.55014,-0.443802 -11.75991,-0.51577 -1.30244,-0.01799 -2.62346,-0.02685 -3.91717,-0.02515 z" />
      <path
         style="fill:#939393;fill-opacity:1;stroke-width:1.92;stroke-linejoin:round;paint-order:stroke markers fill"
         d="m 167.20597,177.46942 c 0,0 5.94708,-5.06966 9.41043,-8.77244 3.46335,-3.70277 9.8578,-9.99289 9.8578,-9.99289 0,0 7.17882,-5.72351 10.38789,-6.67449 3.20908,-0.95098 4.57353,-0.37453 4.57353,-0.37453 -0.0859,0.0603 3.43612,0.86529 7.63435,4.03198 4.12876,3.11429 9.01363,8.98144 9.01363,8.98144 0,0 5.68784,6.21409 7.13111,7.24641 1.44327,1.03232 4.70999,4.5519 5.8622,5.49086 1.15221,0.93895 1.03798,2.24111 -1.10517,1.55962 -2.14316,-0.68149 -8.19315,-6.28694 -8.19315,-6.28694 0,0 -5.89473,-6.59143 -8.09023,-9.20035 -2.19549,-2.60892 -7.73504,-7.61866 -7.73504,-7.61866 0.0162,-0.0925 -3.72587,-2.7818 -5.57304,-3.09499 -1.86316,-0.31591 -4.80086,1.45317 -7.8614,3.80286 -3.06053,2.34969 -5.784,5.56819 -7.4296,7.03315 -1.72726,1.53766 -7.71174,8.06637 -9.23218,9.71811 -1.53478,1.66731 -6.44785,5.10926 -6.44785,5.10926 0,0 -3.53196,1.94122 -2.20328,-0.9584 z"
         id="path5"
         inkscape:label="NoseHighlight"
         sodipodi:nodetypes="cscscscssscscsssscc" />
      <path
         id="path782"
         style="fill:url(#radialGradient782);fill-opacity:1;stroke-width:2.22645;stroke-linejoin:round;paint-order:stroke markers fill"
         d="m 191.05273,176.48849 c 3.99314,0.23824 11.0417,0.59647 16.31836,0.55154 a 8.4208984,11.323499 0 0 0 0.30664,-2.97303 8.4208984,11.323499 0 0 0 -8.41992,-11.32482 8.4208984,11.323499 0 0 0 -8.42187,11.32482 8.4208984,11.323499 0 0 0 0.21679,2.42149 z"
         inkscape:label="InnerShade" />
    </g>
    <g
       inkscape:groupmode="layer"
       id="layer2"
       inkscape:label="RightLens"
       style="display:inline">
      <path
         id="path3"
         style="display:inline;fill:#0d0d0d;fill-opacity:1;stroke-width:2.26426;stroke-linejoin:round;paint-order:stroke markers fill"
         inkscape:label="Uphill"
         d="m 276.77903,70.043914 c -3.28095,0.06163 -6.87431,0.341338 -10.81889,0.889047 -31.55663,4.381678 -48.97027,16.561658 -48.97027,16.561658 -22.95198,12.539591 -14.95567,37.408181 -14.95567,37.408181 0,0 10.19189,29.98736 24.34683,41.60307 14.15494,11.61571 28.12375,12.62102 28.12375,12.62102 0,0 8.83522,2.14857 25.27443,-0.10338 16.43922,-2.25195 24.01268,-8.96592 24.01268,-8.96592 0,0 12.13566,-6.84374 20.01614,-25.7103 7.88046,-18.86655 4.11862,-24.07109 4.2396,-31.78331 0.12101,-7.71224 -8.44658,-24.991841 -14.95064,-29.108354 -5.69107,-3.601949 -13.3513,-13.843124 -36.31796,-13.411712 z m -8.52223,5.931641 c 18.51017,-0.384885 24.6842,8.751495 29.27096,11.964985 5.24201,3.67256 12.14689,19.08853 12.04936,25.96902 -0.0975,6.88049 2.93429,11.5238 -3.41705,28.35565 -6.35133,16.83187 -16.13194,22.93755 -16.13194,22.93755 0,0 -6.1041,5.98955 -19.35341,7.99863 -13.24933,2.00908 -20.37043,0.0928 -20.37043,0.0928 0,0 -11.25823,-0.89735 -22.66652,-11.26034 -11.40829,-10.36299 -19.62276,-37.11593 -19.62276,-37.11593 0,0 -6.44395,-22.18642 12.0544,-33.373652 0,0 14.03457,-10.86661 39.4679,-14.775738 3.17917,-0.488641 6.07518,-0.737951 8.71949,-0.792935 z" />
      <path
         id="path6"
         style="display:inline;fill:#1c1c1c;fill-opacity:1;stroke-width:2.04769;stroke-linejoin:round;paint-order:stroke markers fill"
         inkscape:label="Outline"
         d="m 268.90053,72.712174 c -2.82017,0.05864 -5.90836,0.324324 -9.29895,0.845462 -27.1248,4.169106 -42.09315,15.758664 -42.09315,15.758664 -19.72858,11.93124 -12.8557,35.5932 -12.8557,35.5932 0,0 8.7611,28.53251 20.9281,39.5847 12.16701,11.05218 24.17361,12.00913 24.17361,12.00913 0,0 7.59502,2.04379 21.72551,-0.0989 14.13046,-2.14269 20.63976,-8.53061 20.63976,-8.53061 0,0 10.43166,-6.51179 17.20539,-24.46306 6.77374,-17.95126 3.53994,-22.90352 3.64393,-30.24159 0.10401,-7.33809 -7.26005,-23.779467 -12.85068,-27.696273 -4.89181,-3.427203 -11.47662,-13.171195 -31.21782,-12.760713 z m -0.64373,3.263381 c 18.51017,-0.384885 24.6842,8.751495 29.27096,11.964985 5.24201,3.67256 12.14689,19.08853 12.04936,25.96902 -0.0975,6.88049 2.93429,11.5238 -3.41705,28.35565 -6.35133,16.83187 -16.13194,22.93755 -16.13194,22.93755 0,0 -6.1041,5.98955 -19.35341,7.99863 -13.24933,2.00908 -20.37043,0.0928 -20.37043,0.0928 0,0 -11.25823,-0.89735 -22.66652,-11.26034 -11.40829,-10.36299 -19.62276,-37.11593 -19.62276,-37.11593 0,0 -6.44395,-22.18642 12.0544,-33.373652 0,0 14.03457,-10.86661 39.4679,-14.775738 3.17917,-0.488641 6.07518,-0.737951 8.71949,-0.792935 z" />
      <path
         style="display:none;fill:#bfbfbf;fill-opacity:1;stroke-width:1.92;stroke-linejoin:round;paint-order:stroke markers fill"
         d="m 220.06921,91.544001 c 0,0 14.03456,-10.866646 39.46792,-14.775778 25.43336,-3.909131 32.74848,7.499671 37.9905,11.172234 5.24202,3.672564 12.14702,19.088523 12.04949,25.969023 -0.0975,6.88049 2.93435,11.52383 -3.41699,28.3557 -6.35134,16.83188 -16.13217,22.93764 -16.13217,22.93764 0,0 -6.10377,5.98974 -19.3531,7.99882 -13.24934,2.00908 -20.3704,0.0925 -20.3704,0.0925 0,0 -11.25826,-0.89726 -22.66656,-11.26026 -11.4083,-10.363 -19.62268,-37.11625 -19.62268,-37.11625 0,0 -6.44437,-22.18642 12.05399,-33.373659 z"
         id="path1"
         inkscape:label="Glass" />
    </g>
    <g
       inkscape:groupmode="layer"
       id="g786"
       inkscape:label="LeftLens"
       style="display:inline"
       transform="matrix(-1,0,0,1,398.98791,0)">
      <path
         id="path784"
         style="display:inline;fill:#0d0d0d;fill-opacity:1;stroke-width:2.26426;stroke-linejoin:round;paint-order:stroke markers fill"
         inkscape:label="Uphill"
         d="m 276.77913,70.043914 c 22.96666,-0.431412 30.6269,9.809763 36.31797,13.411712 6.50406,4.116513 15.07165,21.396114 14.95064,29.108354 -0.12098,7.71222 3.64086,12.91676 -4.2396,31.78331 -7.88048,18.86656 -20.01615,25.7103 -20.01615,25.7103 0,0 -7.57345,6.71397 -24.01267,8.96592 -16.43921,2.25195 -25.27444,0.10338 -25.27444,0.10338 0,0 -13.96881,-1.00531 -28.12374,-12.62102 -14.15494,-11.61571 -24.34739,-41.60307 -24.34739,-41.60307 0,0 -7.99575,-24.86859 14.95623,-37.408181 0,0 17.41364,-12.17998 48.97027,-16.561658 3.94457,-0.547709 7.53793,-0.827417 10.81888,-0.889047 z m -8.52222,5.931641 c -2.64431,0.05498 -5.54088,0.304294 -8.72005,0.792935 -25.43333,3.909128 -39.46791,14.775738 -39.46791,14.775738 -18.49834,11.187232 -12.05383,33.373652 -12.05383,33.373652 0,0 8.21446,26.75294 19.62275,37.11593 11.40829,10.36299 22.66653,11.26034 22.66653,11.26034 0,0 7.1211,1.91632 20.37042,-0.0928 13.24932,-2.00908 19.35342,-7.99863 19.35342,-7.99863 0,0 9.78061,-6.10568 16.13194,-22.93755 6.35133,-16.83185 3.31955,-21.47516 3.41705,-28.35565 0.0975,-6.88049 -6.80735,-22.29646 -12.04936,-25.96902 -4.58677,-3.21349 -10.76079,-12.34987 -29.27096,-11.964985 z" />
      <path
         id="path785"
         style="display:inline;fill:#1c1c1c;fill-opacity:1;stroke-width:2.04769;stroke-linejoin:round;paint-order:stroke markers fill"
         inkscape:label="Outline"
         d="m 268.90064,72.712174 c 19.7412,-0.410482 26.32601,9.33351 31.21781,12.760713 5.59064,3.916806 12.95469,20.358183 12.85068,27.696273 -0.10399,7.33807 3.12981,12.29033 -3.64392,30.24159 -6.77373,17.95127 -17.20539,24.46306 -17.20539,24.46306 0,0 -6.50986,6.38792 -20.64033,8.53061 -14.13048,2.1427 -21.72495,0.0989 -21.72495,0.0989 0,0 -12.00715,-0.95695 -24.17416,-12.00913 -12.167,-11.05219 -20.92755,-39.5847 -20.92755,-39.5847 0,0 -6.87287,-23.66196 12.85571,-35.5932 0,0 14.96779,-11.589558 42.09258,-15.758664 3.3906,-0.521138 6.47935,-0.786821 9.29952,-0.845462 z m -0.64373,3.263381 c -2.64431,0.05498 -5.54088,0.304294 -8.72005,0.792935 -25.43333,3.909128 -39.46791,14.775738 -39.46791,14.775738 -18.49834,11.187232 -12.05383,33.373652 -12.05383,33.373652 0,0 8.21446,26.75294 19.62275,37.11593 11.40829,10.36299 22.66653,11.26034 22.66653,11.26034 0,0 7.1211,1.91632 20.37042,-0.0928 13.24932,-2.00908 19.35342,-7.99863 19.35342,-7.99863 0,0 9.78061,-6.10568 16.13194,-22.93755 6.35133,-16.83185 3.31955,-21.47516 3.41705,-28.35565 0.0975,-6.88049 -6.80735,-22.29646 -12.04936,-25.96902 -4.58677,-3.21349 -10.76079,-12.34987 -29.27096,-11.964985 z" />
      <path
         style="display:none;fill:#bfbfbf;fill-opacity:1;stroke-width:1.92;stroke-linejoin:round;paint-order:stroke markers fill"
         d="m 220.06921,91.544001 c 0,0 14.03456,-10.866646 39.46792,-14.775778 25.43336,-3.909131 32.74848,7.499671 37.9905,11.172234 5.24202,3.672564 12.14702,19.088523 12.04949,25.969023 -0.0975,6.88049 2.93435,11.52383 -3.41699,28.3557 -6.35134,16.83188 -16.13217,22.93764 -16.13217,22.93764 0,0 -6.10377,5.98974 -19.3531,7.99882 -13.24934,2.00908 -20.3704,0.0925 -20.3704,0.0925 0,0 -11.25826,-0.89726 -22.66656,-11.26026 -11.4083,-10.363 -19.62268,-37.11625 -19.62268,-37.11625 0,0 -6.44437,-22.18642 12.05399,-33.373659 z"
         id="path791"
         inkscape:label="Glass" />
    </g>
  </g>
</svg>
