<?xml version="1.0" encoding="UTF-8" standalone="no"?>
<!-- Created with Inkscape (http://www.inkscape.org/) -->

<svg
   width="276.93469"
   height="228.45953"
   viewBox="0 0 73.2723 60.446586"
   version="1.1"
   id="svg1"
   xml:space="preserve"
   sodipodi:docname="VectorIcon.svg"
   inkscape:version="1.3.2 (091e20ef0f, 2023-11-25)"
   inkscape:export-filename="VectorIcon.png"
   inkscape:export-xdpi="96"
   inkscape:export-ydpi="96"
   xmlns:inkscape="http://www.inkscape.org/namespaces/inkscape"
   xmlns:sodipodi="http://sodipodi.sourceforge.net/DTD/sodipodi-0.dtd"
   xmlns="http://www.w3.org/2000/svg"
   xmlns:svg="http://www.w3.org/2000/svg"><sodipodi:namedview
     id="namedview1"
     pagecolor="#ffffff"
     bordercolor="#999999"
     borderopacity="1"
     inkscape:showpageshadow="2"
     inkscape:pageopacity="0"
     inkscape:pagecheckerboard="0"
     inkscape:deskcolor="#d1d1d1"
     inkscape:document-units="px"
     inkscape:zoom="0.78751403"
     inkscape:cx="48.253109"
     inkscape:cy="197.4568"
     inkscape:window-width="1920"
     inkscape:window-height="1011"
     inkscape:window-x="0"
     inkscape:window-y="0"
     inkscape:window-maximized="1"
     inkscape:current-layer="layer2" /><defs
     id="defs1"><clipPath
       clipPathUnits="userSpaceOnUse"
       id="clipPath16"><circle
         style="display:inline;fill:#ffd700;fill-opacity:1;stroke-width:0.489"
         id="circle17"
         cx="67.469505"
         cy="67.469505"
         r="55.591072" /></clipPath></defs><g
     inkscape:groupmode="layer"
     id="layer5"
     inkscape:label="Coin"
     style="display:none"
     sodipodi:insensitive="true"
     transform="translate(-30.881733,-36.873021)"><circle
       style="display:inline;fill:#d4af37;fill-opacity:1;stroke-width:0.527419"
       id="circle15"
       cx="67.469505"
       cy="67.469505"
       r="59.958717" /><circle
       style="display:inline;fill:#ffd700;fill-opacity:1;stroke-width:0.489"
       id="path14"
       cx="67.469505"
       cy="67.469505"
       r="55.591072" /><ellipse
       style="display:inline;fill:#ffec00;fill-opacity:1;stroke-width:0.666916"
       id="circle14"
       cx="67.469505"
       cy="4.8105669"
       rx="69.701927"
       ry="82.468895"
       clip-path="url(#clipPath16)" /></g><g
     inkscape:groupmode="layer"
     id="layer2"
     inkscape:label="Ox"
     style="display:inline"
     transform="translate(-30.881733,-36.873021)"><path
       style="display:none;fill:#9becdc;fill-opacity:1;stroke-width:0.489"
       d="m 40.988689,36.873021 c 0,0 0.755938,1.343891 6.047511,4.955597 2.350623,1.604393 4.25295,1.839995 5.911347,2.888246 2.283074,1.443101 3.915858,3.411246 3.915858,3.411246 0,0 1.908234,0.965429 4.455897,2.090186 1.436405,0.634152 2.875548,1.433538 4.783356,1.857495 5.291572,1.175903 10.079185,3.863689 10.079185,3.863689 0,0 4.367647,2.603789 10.247172,1.679864 5.879524,-0.923925 6.299491,-0.839933 6.299491,-0.839933 0,0 3.443722,1.007919 4.787612,4.367646 1.343893,3.359729 1.763858,11.171097 1.763858,11.171097 0,0 0.167987,1.51188 1.175904,2.603791 1.00792,1.091912 -0.923925,3.191743 -0.923925,3.191743 0,0 -1.259896,2.015837 -0.167984,3.6957 1.091909,1.679863 2.687779,2.015836 2.687779,2.015836 0,0 2.60379,1.00792 2.01584,2.687783 -0.58795,1.679866 -3.52772,2.015837 -3.52772,2.015837 0,0 -3.107744,-0.83993 -3.695696,-3.443721 -0.587954,-2.603789 0.167987,-5.963518 0.167987,-5.963518 0,0 1.511877,-3.275735 0.251978,-6.131504 -1.259898,-2.85577 -1.511876,-6.719457 -1.511876,-6.719457 0,0 0.167984,-4.367646 -2.01584,-5.879525 C 91.5526,58.879242 90.71267,60.13914 90.71267,60.13914 c 0,0 -1.343893,0.671946 1.595869,3.611708 2.939764,2.939762 2.099831,10.499151 2.099831,10.499151 0,0 0.32156,6.323217 -0.602364,9.010999 -0.424321,1.234387 -0.751557,3.73822 -1.302544,4.83262 -0.648745,1.288572 -1.730526,1.634858 -1.730526,1.634858 -0.380909,0.711023 -1.327572,3.418061 -2.234776,4.701147 -1.157784,1.63749 -2.933791,2.17276 -2.933791,2.17276 0,0 -3.303633,1.532013 -3.845057,0.11791 -0.643078,-1.679603 -0.311379,-2.621942 -0.117911,-2.563902 0,0 -0.587952,0.08399 1.259898,-1.091911 1.84785,-1.175907 3.443722,-2.85577 3.443722,-2.85577 0,0 1.091911,-1.175906 -0.167987,-1.931845 -1.259898,-0.755938 -1.007917,-3.275734 -1.007917,-3.275734 0,0 -0.335973,-0.167987 -1.343893,-1.679864 -1.007917,-1.511879 -3.947681,-5.123587 -3.947681,-5.123587 0,0 2.957523,2.250792 3.359729,4.850609 0.134685,0.870593 0.744323,2.192179 0.725312,3.068433 -0.02992,1.378902 -0.809305,2.6851 -0.809305,2.6851 0,0 -1.553874,2.582792 -2.981758,2.750778 -1.427885,0.167987 -3.233739,-0.063 -3.233739,-0.063 0,0 -0.440965,-0.629949 -0.608952,-1.805853 -0.167987,-1.175906 0.52496,-1.763858 0.52496,-1.763858 0.299638,-0.173905 1.095041,-0.624623 2.120828,-1.238899 1.063962,-0.637138 -0.272978,-1.931846 -0.272978,-1.931846 0,0 -2.771778,-1.931842 -3.191743,-3.19174 -0.419965,-1.259898 -0.755938,-3.611708 -0.755938,-3.611708 0,0 0.251978,-0.419967 -1.259899,-0.587954 -1.511876,-0.167987 -6.467477,-0.251979 -6.467477,-0.251979 0,0 -1.091912,1.427885 -2.603789,1.679864 -1.511879,0.251981 -1.931844,2.015839 -1.931844,2.015839 0,0 0.50396,3.611708 -0.251981,4.955598 -0.755939,1.34389 -1.931842,6.383483 -1.931842,6.383483 0,0 1.007917,3.695703 -1.343893,4.199662 -2.35181,0.50396 -4.031673,-0.335973 -4.031673,-0.335973 0,0 -1.259899,-0.587952 -0.419966,-1.595871 0.839931,-1.00792 2.35181,-3.023756 2.35181,-3.023756 0,0 1.259898,-0.419966 1.595872,-2.85577 0.33597,-2.435802 -1.091915,-9.575226 -1.091915,-9.575226 0,0 -0.755938,-3.359726 -1.511876,-4.199659 -0.755939,-0.839933 -2.85577,-1.343893 -2.85577,-1.343893 0,0 -1.091912,-0.335971 -2.939762,1.343893 -1.847849,1.679863 -4.031675,5.963517 -4.031675,5.963517 0,0 -1.175904,2.183823 0.08399,4.283655 1.259899,2.099828 1.763858,1.595871 1.763858,1.595871 0,0 1.175904,0.251979 0.839931,1.679863 -0.335971,1.427885 -0.923925,2.015837 -0.923925,2.015837 0,0 -0.587952,0.755938 -1.763858,0.50396 -1.175904,-0.251979 -2.183823,-2.603789 -2.183823,-2.603789 l -1.259899,-3.863689 c 0,0 -1.34389,-2.183823 -1.34389,-3.863686 0,-1.679866 2.687783,-8.651301 2.687783,-8.651301 0,0 1.595872,-2.435804 1.007917,-3.947681 -0.587952,-1.51188 -1.84785,-4.283655 -1.84785,-4.283655 0,0 -0.923925,-0.755938 -1.259898,-2.435804 -0.335973,-1.679863 0.167987,-2.099829 -2.183823,-2.35181 -2.35181,-0.251978 -4.619628,-0.167986 -4.619628,-0.167986 0,0 -1.427885,-0.755939 -1.931842,-1.84785 -0.50396,-1.091912 -1.679866,-2.183824 -1.679866,-2.183824 0,0 -0.923925,-1.259898 -0.33597,-2.267817 0.587951,-1.007917 3.443721,-3.19174 3.443721,-3.19174 0,0 0.923925,-1.427885 1.427885,-2.35181 0.503957,-0.923925 1.34389,-1.595872 1.34389,-1.595872 0,0 0.4632,0.0042 0.547192,-0.919704 0.08399,-0.923925 -1.30313,-1.348113 -1.30313,-1.348113 0,0 -0.648226,0.05939 -1.70534,-0.895103 -0.926765,-0.8368 -1.65439,-1.960667 -1.65439,-1.960667 l -0.167986,-3.107748 c 0,0 1.343892,1.931844 2.351809,2.519796 1.00792,0.587952 2.85577,1.931845 2.85577,1.931845 0,0 1.343893,0.419965 2.435804,0.335973 1.091912,-0.084 0.923925,-1.091912 0.923925,-1.091912 z"
       id="path1"
       sodipodi:nodetypes="csscsscscscscscscscscscscsscscscscscscsscscscscscscscscscscscscscscscsccscscsscscscscscsccscscc"
       inkscape:label="Silhouette"
       sodipodi:insensitive="true" /><g
       inkscape:groupmode="layer"
       id="layer3"
       inkscape:label="BacksideReflections"
       style="display:none"
       sodipodi:insensitive="true"><path
         style="fill:#6aa8b4;fill-opacity:1;stroke-width:0.489"
         d="m 34.566243,53.334168 3.325961,-2.791431 c 0,0 0.961084,-0.838695 2.148928,-0.363559 1.187842,0.475136 2.661837,2.026539 2.661837,2.026539 0,0 0.361859,0.322107 0.554295,0.976587 0.200184,0.680827 0.223929,1.70408 -0.169738,2.188592 -0.281489,0.346448 -0.70377,0.855886 -1.233511,1.123251 -0.923293,0.465992 -2.001868,0.581729 -2.001868,0.581729 0,0 -2.316295,0.296961 -3.26657,0.237567 -0.950274,-0.05939 -2.138119,-0.712705 -2.138119,-0.712705 0,0 -1.247235,-2.078726 0.118785,-3.26657 z"
         id="path2"
         sodipodi:nodetypes="ccscssscscc" /><path
         style="fill:#6aa8b4;fill-opacity:1;stroke-width:0.489"
         d="m 52.621748,62.826923 0.042,-4.241657 c 0,0 0,-1.217904 1.007919,-1.679866 1.00792,-0.461963 1.301896,-0.923925 1.301896,-0.923925 0,0 0.461962,-0.671944 1.385887,-0.545955 0.923925,0.12599 4.619628,1.679864 4.619628,1.679864 0,0 5.207577,2.183823 8.39932,2.645786 3.191742,0.461962 4.787614,2.771777 4.787614,2.771777 0,0 3.989676,6.257494 4.493635,7.601384 0.50396,1.343893 0.839933,2.85577 0.839933,2.85577 0,0 0.755939,1.469882 -1.091911,2.015836 -1.847853,0.545957 -7.853365,0.209984 -7.853365,0.209984 0,0 -1.637869,0.08399 -2.267818,-0.251979 -0.629949,-0.335973 -2.099831,-0.923925 -2.099831,-0.923925 0,0 -1.46988,-0.503959 -2.771775,-0.545957 -1.301896,-0.042 -2.057834,-0.125989 -2.057834,-0.125989 0,0 -1.217901,-0.084 -2.015837,-0.839933 -0.797935,-0.755938 -2.015836,-2.603788 -2.015836,-2.603788 0,0 -0.629949,-1.133909 -1.427885,-1.847853 -0.797936,-0.713941 -2.099831,-2.561791 -2.099831,-2.561791 0,0 -0.965923,-1.133909 -1.175904,-2.687783 z"
         id="path3" /><path
         style="fill:#6aa8b4;fill-opacity:1;stroke-width:0.489"
         d="m 85.881077,77.774045 4.781071,-0.02969 c 0,0 0.801793,0.02969 1.158147,0.950275 0.356351,0.920578 0,1.603586 0,1.603586 0,0 -0.564227,1.217541 -0.861187,2.345992 -0.29696,1.12845 -1.098756,1.930246 -1.098756,1.930246 0,0 -0.08909,0.564224 -0.861185,0.44544 -0.772099,-0.118782 -2.375688,-1.484802 -2.375688,-1.484802 0,0 -1.722371,-1.455111 -1.959941,-2.494473 -0.237569,-1.039363 -0.415745,-2.375686 -0.415745,-2.375686 0,0 -0.118785,-1.158148 1.633284,-0.890884 z"
         id="path4" /><path
         style="display:inline;fill:#6aa8b4;fill-opacity:1;stroke-width:0.489"
         d="m 78.191453,81.711134 c 1.854756,1.741997 2.095344,1.892997 2.405539,2.496975 0.12064,0.234897 0.323529,0.736162 0.344348,1.204769 0.02978,0.670212 -0.03955,1.24453 -0.387642,1.8969 -0.274561,0.514562 -0.571809,1.166435 -1.124579,1.481086 -1.092586,0.621928 -1.466822,0.679403 -1.466822,0.679403 0,0 -0.983179,0.521637 -1.46793,0.743395 -0.16689,0.07635 -0.12222,-0.226696 -0.165537,-0.529911 -0.167988,-1.175906 0.52496,-1.763858 0.52496,-1.763858 0.477815,-0.337234 1.095041,-0.624623 2.120828,-1.238899 1.063962,-0.637138 -0.272978,-1.931846 -0.272978,-1.931846 0,0 -2.771778,-1.931842 -3.191743,-3.19174 -0.419965,-1.259898 -0.369889,-1.54783 -0.369889,-1.54783 0.234619,-0.07074 0.09124,-0.05862 1.01458,0.246437 0.726095,0.484431 1.329346,0.960996 2.036865,1.455119 z"
         id="path5"
         sodipodi:nodetypes="csssscsscscsccc" /><path
         style="display:inline;fill:#6aa8b4;fill-opacity:1;stroke-width:0.489"
         d="m 45.328342,70.938188 c -0.0067,2.229241 -0.210142,2.388508 -0.210142,2.388508 0,0 -0.151042,0.662843 -0.870868,2.79395 -0.300116,0.888521 -0.282204,0.791996 -0.869669,2.692969 -0.255674,0.48498 -0.401447,1.098058 -0.607257,1.645368 -0.265022,0.70477 -0.506325,1.177028 -1.009695,1.610111 -0.123304,0.09009 -0.188743,0.06964 -0.229094,-0.03592 -0.176994,-0.462983 -0.309594,-1.223691 -0.290954,-1.567685 -0.09145,-1.677375 2.687783,-8.651301 2.687783,-8.651301 0,0 0.347144,-0.539294 0.931566,-1.985192 0.357653,0.308711 0.381818,0.692021 0.46833,1.109188 z"
         id="path6"
         sodipodi:nodetypes="ccscscscccc" /><path
         style="display:inline;fill:#6aa8b4;fill-opacity:1;stroke-width:0.489"
         d="m 45.673141,83.971719 c 0.09153,0.261289 0.189069,0.623025 0.439128,1.029407 0.67178,1.09174 1.079772,1.432392 1.763858,1.595871 0,0 1.175904,0.251979 0.839931,1.679863 -0.642105,0.0043 -1.076802,-0.01253 -1.41849,-0.06646 -0.468303,-0.07391 -0.761895,-0.217539 -1.175296,-0.472131 -0.433698,-0.267092 -0.87399,-0.642218 -1.088176,-1.116995 -0.188262,-0.417315 -0.227933,-0.904103 -0.127064,-1.480609 0.07266,-0.415285 0.299741,-0.783544 0.76611,-1.168954 z"
         id="path7"
         sodipodi:nodetypes="csccsssscc" /></g><g
       inkscape:groupmode="layer"
       id="layer4"
       inkscape:label="FrontsideReflections"
       style="display:none"
       sodipodi:insensitive="true"><path
         style="fill:#ffffff;fill-opacity:1;stroke-width:0.489"
         d="m 54.165658,49.651853 c 0,0 2.138119,2.850825 8.552474,4.573199 6.414354,1.722371 10.096669,3.029 10.096669,3.029 0,0 2.019332,0.950275 8.611864,2.256901 6.592531,1.306629 8.552471,3.444748 8.552471,3.444748 0,0 2.078726,1.722371 2.494471,8.671256 0.415745,6.948884 -0.890881,13.303845 -0.890881,13.303845 0,0 -0.296961,1.187844 -0.950275,1.722374 -0.653315,0.53453 -1.009666,0.29696 -1.009666,0.29696 0,0 -0.296963,0.05939 -0.53453,-0.653314 -0.237569,-0.712706 0.415745,-1.247236 0.415745,-1.247236 0,0 0.712706,-0.29696 0.950275,-2.19751 0.237567,-1.900549 0.593921,-5.107725 0.593921,-5.107725 0,0 0.05939,-4.513805 -0.712706,-6.948885 -0.772099,-2.435079 -2.078725,-5.939218 -2.078725,-5.939218 0,0 -0.05939,-1.544196 -5.523473,-3.029 -5.46408,-1.484805 -12.650531,-2.672646 -12.650531,-2.672646 0,0 -6.533139,-1.544199 -9.502748,-2.850825 -2.96961,-1.306629 -7.245845,-4.513805 -7.245845,-4.513805 0,0 -0.890881,-0.475138 -0.712706,-1.247235 0.178176,-0.772099 0.356354,-0.83149 0.356354,-0.83149 0,0 0.118783,-0.475139 1.187842,-0.05939 z"
         id="path8" /><path
         style="fill:#ffffff;fill-opacity:1;stroke-width:0.489"
         d="m 32.190398,52.432762 5.396564,-5.438561 c 0,0 0.293976,-0.377968 0.965922,-0.08399 0.671947,0.293976 0.587952,0.923925 0.587952,0.923925 0,0 0.042,0.671946 -0.587952,1.175906 -0.629949,0.503957 -1.679863,1.511877 -1.679863,1.511877 0,0 -0.190427,0.192159 -0.398968,0.650948 -0.209983,0.461962 -0.734941,0.587953 -0.734941,0.587953 0,0 -0.524959,0.18898 -0.965922,0.650947 -0.41518,0.434953 -1.196902,1.322892 -1.196902,1.322892 0,0 -0.692944,0.440964 -1.154909,0.230983 -0.461963,-0.209984 -0.692943,-0.734943 -0.692943,-0.734943 0.01571,-0.369781 0.184668,-0.607296 0.461962,-0.797937 z"
         id="path9"
         sodipodi:nodetypes="ccscscscscscc" /><path
         style="display:inline;fill:#ffffff;fill-opacity:1;stroke-width:0.489"
         d="m 74.072441,75.237639 c -0.587953,0.298119 -1.000767,0.456428 -2.32834,0.481105 -0.759503,0.01412 -2.075745,0.132203 -3.227759,-0.07688 -0.636903,-0.115596 -1.144588,-0.459658 -1.741857,-0.483408 -0.792782,-0.03152 -1.006886,0.241126 -1.442071,0.598686 0,0 -0.882547,0.757176 -1.562934,1.721861 -0.8256,1.170575 -1.070475,2.278488 -1.115708,3.467641 -0.07136,1.876058 0.215828,3.44234 -0.456799,4.936413 -0.554471,1.231618 -1.415943,3.944139 -1.554084,5.02817 -0.756529,0.07608 -0.969452,-0.564225 -1.123484,-1.044795 -0.37155,-1.15921 0.09202,-1.9016 0.583587,-3.629703 0.426829,-1.500522 0.685562,-3.003064 0.686866,-4.538287 0.0015,-1.813552 0.0347,-2.871071 0.07844,-4.432722 0.02724,-0.97262 0.657548,-1.606223 1.013387,-2.635897 0.461424,-1.142653 0.741075,-2.047919 1.151631,-2.296601 0.611773,-0.370564 1.411703,-0.280877 2.468153,-0.117937 0.861746,0.31106 2.131776,0.505948 3.224507,0.620842 1.321956,0.138994 2.724012,0.01086 4.158734,0.188431 1.043604,0.0905 1.94022,0.074 2.017902,0.779881 -0.10607,0.803851 -0.374327,0.986238 -0.830167,1.433204 z"
         id="path10"
         sodipodi:nodetypes="cssscssscsssscscscccc" /><path
         style="display:inline;fill:#ffffff;fill-opacity:1;stroke-width:0.489"
         d="m 50.059954,74.753954 c -1.847849,1.679863 -4.031675,5.963517 -4.031675,5.963517 0,0 -0.686615,1.275143 -0.448368,2.813571 -0.529287,0.550474 -0.628291,0.651718 -1.35538,1.152742 -0.692324,0.299434 -0.908639,0.101024 -0.908639,0.101024 0,0 -0.446559,-1.434504 0.03901,-3.504861 0.440938,-1.880056 0.567613,-1.824387 0.974002,-2.973679 0.40639,-1.149293 0.727497,-2.035782 1.570395,-3.047484 0.842898,-1.011702 1.439717,-1.550523 2.124433,-1.675642 0.770926,0.04967 1.676532,0.413868 2.036221,1.17081 z"
         id="path11"
         sodipodi:nodetypes="cccccszzccc" /><path
         style="display:inline;fill:#ffffff;fill-opacity:1;stroke-width:0.489"
         d="m 90.017702,91.476592 c -0.430996,1.024261 -0.961698,2.220628 -1.479542,2.953031 -1.157785,1.63749 -2.933791,2.17276 -2.933791,2.17276 0,0 -0.611868,-0.321132 -0.741424,-0.851982 -0.08066,-0.330508 0.358469,-0.478273 0.844048,-0.877959 1.351761,-1.112649 1.286734,-0.99705 1.876928,-1.849959 0.590194,-0.852909 0.314975,-0.41997 1.469881,-2.036835 0.511708,-0.113601 0.848104,0.04676 0.9639,0.490944 z"
         id="path12"
         sodipodi:nodetypes="cscsszcc" /><path
         style="display:inline;fill:#fffffe;fill-opacity:1;stroke-width:0.489"
         d="m 83.962584,86.116722 c -0.02992,1.378902 -0.809305,2.6851 -0.809305,2.6851 0,0 -0.415527,0.690674 -1.014281,1.380928 -0.676949,-0.207689 -1.033384,-0.302397 -1.415147,-1.033533 0.188478,-1.161386 0.933509,-2.008877 1.754905,-2.854276 0.639212,-0.161866 1.03306,-0.370495 1.483828,-0.178224 z"
         id="path13"
         sodipodi:nodetypes="ccccccc" /></g><path
       style="display:inline;fill:#ffffff;fill-opacity:1;stroke-width:0.489"
       d="m 40.988689,36.873021 c 0,0 0.755938,1.343891 6.047511,4.955597 2.350623,1.604393 4.25295,1.839995 5.911347,2.888246 2.283074,1.443101 3.915858,3.411246 3.915858,3.411246 0,0 1.908234,0.965429 4.455897,2.090186 1.436405,0.634152 2.875548,1.433538 4.783356,1.857495 5.291572,1.175903 10.079185,3.863689 10.079185,3.863689 0,0 4.367647,2.603789 10.247172,1.679864 5.879524,-0.923925 6.299491,-0.839933 6.299491,-0.839933 0,0 3.443722,1.007919 4.787612,4.367646 1.343893,3.359729 1.763858,11.171097 1.763858,11.171097 0,0 0.167987,1.51188 1.175904,2.603791 1.00792,1.091912 -0.923925,3.191743 -0.923925,3.191743 0,0 -1.259896,2.015837 -0.167984,3.6957 1.091909,1.679863 2.687779,2.015836 2.687779,2.015836 0,0 2.60379,1.00792 2.01584,2.687783 -0.58795,1.679866 -3.52772,2.015837 -3.52772,2.015837 0,0 -3.107744,-0.83993 -3.695696,-3.443721 -0.587954,-2.603789 0.167987,-5.963518 0.167987,-5.963518 0,0 1.511877,-3.275735 0.251978,-6.131504 -1.259898,-2.85577 -1.511876,-6.719457 -1.511876,-6.719457 0,0 0.167984,-4.367646 -2.01584,-5.879525 C 91.5526,58.879242 90.71267,60.13914 90.71267,60.13914 c 0,0 -1.343893,0.671946 1.595869,3.611708 2.939764,2.939762 2.099831,10.499151 2.099831,10.499151 0,0 0.32156,6.323217 -0.602364,9.010999 -0.424321,1.234387 -0.751557,3.73822 -1.302544,4.83262 -0.648745,1.288572 -1.730526,1.634858 -1.730526,1.634858 -0.380909,0.711023 -1.327572,3.418061 -2.234776,4.701147 -1.157784,1.63749 -2.933791,2.17276 -2.933791,2.17276 0,0 -3.303633,1.532013 -3.845057,0.11791 -0.643078,-1.679603 -0.311379,-2.621942 -0.117911,-2.563902 0,0 -0.587952,0.08399 1.259898,-1.091911 1.84785,-1.175907 3.443722,-2.85577 3.443722,-2.85577 0,0 1.091911,-1.175906 -0.167987,-1.931845 -1.259898,-0.755938 -1.007917,-3.275734 -1.007917,-3.275734 0,0 -0.335973,-0.167987 -1.343893,-1.679864 -1.007917,-1.511879 -3.947681,-5.123587 -3.947681,-5.123587 0,0 2.957523,2.250792 3.359729,4.850609 0.134685,0.870593 0.744323,2.192179 0.725312,3.068433 -0.02992,1.378902 -0.809305,2.6851 -0.809305,2.6851 0,0 -1.553874,2.582792 -2.981758,2.750778 -1.427885,0.167987 -3.233739,-0.063 -3.233739,-0.063 0,0 -0.440965,-0.629949 -0.608952,-1.805853 -0.167987,-1.175906 0.52496,-1.763858 0.52496,-1.763858 0.299638,-0.173905 1.095041,-0.624623 2.120828,-1.238899 1.063962,-0.637138 -0.272978,-1.931846 -0.272978,-1.931846 0,0 -2.771778,-1.931842 -3.191743,-3.19174 -0.419965,-1.259898 -0.755938,-3.611708 -0.755938,-3.611708 0,0 0.251978,-0.419967 -1.259899,-0.587954 -1.511876,-0.167987 -6.467477,-0.251979 -6.467477,-0.251979 0,0 -1.091912,1.427885 -2.603789,1.679864 -1.511879,0.251981 -1.931844,2.015839 -1.931844,2.015839 0,0 0.50396,3.611708 -0.251981,4.955598 -0.755939,1.34389 -1.931842,6.383483 -1.931842,6.383483 0,0 1.007917,3.695703 -1.343893,4.199662 -2.35181,0.50396 -4.031673,-0.335973 -4.031673,-0.335973 0,0 -1.259899,-0.587952 -0.419966,-1.595871 0.839931,-1.00792 2.35181,-3.023756 2.35181,-3.023756 0,0 1.259898,-0.419966 1.595872,-2.85577 0.33597,-2.435802 -1.091915,-9.575226 -1.091915,-9.575226 0,0 -0.755938,-3.359726 -1.511876,-4.199659 -0.755939,-0.839933 -2.85577,-1.343893 -2.85577,-1.343893 0,0 -1.091912,-0.335971 -2.939762,1.343893 -1.847849,1.679863 -4.031675,5.963517 -4.031675,5.963517 0,0 -1.175904,2.183823 0.08399,4.283655 1.259899,2.099828 1.763858,1.595871 1.763858,1.595871 0,0 1.175904,0.251979 0.839931,1.679863 -0.335971,1.427885 -0.923925,2.015837 -0.923925,2.015837 0,0 -0.587952,0.755938 -1.763858,0.50396 -1.175904,-0.251979 -2.183823,-2.603789 -2.183823,-2.603789 l -1.259899,-3.863689 c 0,0 -1.34389,-2.183823 -1.34389,-3.863686 0,-1.679866 2.687783,-8.651301 2.687783,-8.651301 0,0 1.595872,-2.435804 1.007917,-3.947681 -0.587952,-1.51188 -1.84785,-4.283655 -1.84785,-4.283655 0,0 -0.923925,-0.755938 -1.259898,-2.435804 -0.335973,-1.679863 0.167987,-2.099829 -2.183823,-2.35181 -2.35181,-0.251978 -4.619628,-0.167986 -4.619628,-0.167986 0,0 -1.427885,-0.755939 -1.931842,-1.84785 -0.50396,-1.091912 -1.679866,-2.183824 -1.679866,-2.183824 0,0 -0.923925,-1.259898 -0.33597,-2.267817 0.587951,-1.007917 3.443721,-3.19174 3.443721,-3.19174 0,0 0.923925,-1.427885 1.427885,-2.35181 0.503957,-0.923925 1.34389,-1.595872 1.34389,-1.595872 0,0 0.4632,0.0042 0.547192,-0.919704 0.08399,-0.923925 -1.30313,-1.348113 -1.30313,-1.348113 0,0 -0.648226,0.05939 -1.70534,-0.895103 -0.926765,-0.8368 -1.65439,-1.960667 -1.65439,-1.960667 l -0.167986,-3.107748 c 0,0 1.343892,1.931844 2.351809,2.519796 1.00792,0.587952 2.85577,1.931845 2.85577,1.931845 0,0 1.343893,0.419965 2.435804,0.335973 1.091912,-0.084 0.923925,-1.091912 0.923925,-1.091912 z"
       id="path15"
       sodipodi:nodetypes="csscsscscscscscscscscscscsscscscscscscsscscscscscscscscscscscscscscscsccscscsscscscscscsccscscc"
       inkscape:label="SilhouetteWhite" /></g></svg>
